<?xml version="1.0" encoding="utf-8"?>
<!-- Generator: Adobe Illustrator 24.0.0, SVG Export Plug-In . SVG Version: 6.00 Build 0)  -->
<svg version="1.1" id="Layer_1" xmlns="http://www.w3.org/2000/svg" xmlns:xlink="http://www.w3.org/1999/xlink" x="0px" y="0px"
	 viewBox="0 0 170 35" style="enable-background:new 0 0 170 35;" xml:space="preserve">
<style type="text/css">
	.st0{fill:#FFFFFF;}
	.st1{fill:#06D889;}
</style>
<g>
	<path class="st0" d="M56.3,7.7v23.2H52V7.7h-9V4.6h22.2v3.1H56.3L56.3,7.7z"/>
	<path class="st0" d="M86.7,30.8H66.8V4.6H86v3.1H71v8.1h13.9v3.1H71v8.9h15.7V30.8L86.7,30.8z"/>
	<path class="st0" d="M114.1,30.8h-6L93,8.3h-0.5v22.5h-3.9V4.6h6.1L109.8,27h0.5V4.6h3.9L114.1,30.8L114.1,30.8z"/>
	<path class="st0" d="M123.1,23c-0.6,0.8-0.8,1.9-0.8,3.3v1.4h17.6v3.1h-21.9v-4.2c0-2,0.4-3.7,1-4.9c0.6-1.3,1.8-2.2,3.1-3
		c1.4-0.7,3.4-1.4,5.9-2c2-0.5,3.5-0.9,4.5-1.3c1-0.4,1.9-0.9,2.4-1.5c0.6-0.6,0.8-1.5,0.8-2.5v-0.7c0-1.2-0.5-2.1-1.4-2.7
		s-2.7-0.8-5.2-0.8c-2.4,0-4.3,0.4-5.4,1s-1.7,1.7-1.7,3.1v1h-4v-1.2c0-2.2,0.9-3.9,2.7-5c1.8-1.1,4.5-1.7,8.3-1.7
		c3.7,0,6.5,0.6,8.2,1.7c1.7,1.1,2.5,2.8,2.5,5V12c0,1.7-0.4,3.1-1.2,4.1c-0.8,1-1.9,1.9-3.2,2.3c-1.4,0.6-3.1,1-5.2,1.5
		c-2.1,0.5-3.7,0.9-4.8,1.4C124.5,21.5,123.6,22.1,123.1,23z"/>
	<path class="st0" d="M161.8,24.1v6.8h-4.2v-6.8h-14.5v-2.5l13.5-17h5.3V21h4.9v3L161.8,24.1L161.8,24.1z M157.6,21.1V7.9L147,21.1
		H157.6z"/>
</g>
<g>
	<polygon class="st1" points="22.4,18.9 22.4,20.2 25.4,16.9 24.2,16.9 	"/>
	<path class="st1" d="M35.5,16.3C35,13,33.7,9.9,31.7,7.5c0.2-0.3,0.3-0.6,0.3-1c0-1.1-0.9-1.9-2-1.9c-0.4,0-0.8,0.1-1.1,0.3
		c-2.4-1.9-5.4-3.2-8.7-3.5C20,0.6,19.2,0,18.3,0s-1.7,0.6-1.9,1.5c-3.1,0.4-6,1.7-8.4,3.6C7.7,4.9,7.3,4.8,6.9,4.8
		c-1.1,0-2,0.9-2,2c0,0.4,0.1,0.8,0.4,1.1c-1.9,2.4-3.2,5.3-3.5,8.5c-0.9,0.2-1.6,1-1.6,1.9s0.7,1.7,1.5,1.9
		c0.3,3.2,1.6,6.2,3.4,8.6c-0.2,0.3-0.3,0.7-0.3,1.1c0,1.1,0.9,2,1.9,2c0.4,0,0.7-0.1,1-0.3c2,1.6,4.4,2.9,7,3.5v-1
		c-2.4-0.6-4.5-1.7-6.4-3.2c0.2-0.3,0.3-0.6,0.3-1l0,0l6.1-2.9v-1l-6.3,3c-0.3-0.6-1-1.1-1.7-1.1c-0.3,0-0.7,0.1-1,0.3
		c-1.7-2.3-2.9-5-3.2-8c0.4-0.1,0.8-0.3,1-0.6l11.2,4.7v-0.9L4,18.7c0-0.2,0.1-0.3,0.1-0.5c0-0.1,0-0.3,0-0.4l3.6-1.9v-1l-4,2
		c-0.3-0.3-0.6-0.6-1-0.7c0.4-3,1.6-5.7,3.3-7.9c0.2,0.3,0.6,0.4,0.9,0.4c0.5,0,0.9-0.2,1.2-0.4l2.3,1.9h1.4L8.7,7.5
		C8.8,7.3,8.9,7,8.9,6.7S8.8,6,8.6,5.7c2.2-1.8,4.9-3,7.8-3.4c0.1,0.5,0.5,1,1,1.3l-3.1,6.5h1l3-6.3c0,0,0,0,0.1,0
		c1,0,1.8-0.7,1.9-1.6c3,0.3,5.8,1.4,8.1,3.2c-0.2,0.3-0.3,0.6-0.3,1c0,0.1,0,0.2,0,0.3l-9.8,3.4h2.6l7.4-2.6
		c0.1,0.2,0.4,0.4,0.6,0.6l-0.9,2h0.9l0.7-1.7c0.1,0,0.2,0,0.2,0c0.4,0,0.8-0.1,1.1-0.3c1.9,2.3,3.1,5.1,3.6,8.2
		c-0.5,0.1-1,0.5-1.3,0.9l-3.8-1.4v0.9L33,18c0,0.1,0,0.1,0,0.2c0,0.9,0.7,1.7,1.6,1.9c-0.3,3.2-1.6,6.1-3.5,8.5
		c-0.3-0.2-0.7-0.3-1.1-0.3c-0.1,0-0.1,0-0.2,0l-2.3-11.4h-2.3c0.3,0.1,0.9,0.2,1.3,0.2c0.1,0,0.2,0,0.2,0L29,28.6
		c-0.3,0.2-0.5,0.4-0.7,0.7l-6-2.6v1l5.7,2.5l0,0c0,0.4,0.1,0.7,0.3,1c-1.8,1.4-3.8,2.3-6,2.9V35c2.5-0.5,4.7-1.7,6.6-3.2
		c0.3,0.2,0.7,0.3,1,0.3c1.1,0,2-0.9,2-2c0-0.4-0.1-0.7-0.3-1c2.1-2.5,3.5-5.7,3.8-9.1c0.8-0.2,1.5-1,1.5-1.9
		C37,17.3,36.4,16.5,35.5,16.3z"/>
	<polygon class="st1" points="21.7,27.3 21.7,26.4 21.7,21 21.7,19.7 21.7,16.2 24.8,16.2 28.1,16.2 28.2,16.2 28.9,16.2 28.9,15.5 
		28.9,10.9 28.8,10.9 27.8,10.9 19,10.9 16.3,10.9 14.9,10.9 11.3,10.9 8.3,10.9 8.3,14.6 8.3,15.6 8.3,16.2 14.2,16.2 15.2,16.2 
		15.5,16.2 15.5,17.2 15.5,20.1 15.5,23.5 15.5,24.4 15.5,25.6 15.5,26.6 15.5,35 21.7,35 	"/>
</g>
</svg>
