<?xml version="1.0" encoding="utf-8"?>
<!-- Generator: Adobe Illustrator 24.0.0, SVG Export Plug-In . SVG Version: 6.00 Build 0)  -->
<svg version="1.1" id="Layer_1" xmlns="http://www.w3.org/2000/svg" xmlns:xlink="http://www.w3.org/1999/xlink" x="0px" y="0px"
	 viewBox="0 0 38 35" style="enable-background:new 0 0 38 35;" xml:space="preserve">
<style type="text/css">
	.st0{fill:#06D889;}
</style>
<g>
	<polygon class="st0" points="22.8,18.9 22.8,20.2 25.8,16.9 24.6,16.9 	"/>
	<path class="st0" d="M35.9,16.3c-0.4-3.3-1.8-6.4-3.8-8.8c0.2-0.3,0.3-0.6,0.3-1c0-1.1-0.9-1.9-2-1.9c-0.4,0-0.8,0.1-1.1,0.3
		c-2.4-1.9-5.4-3.2-8.7-3.5c-0.2-0.8-1-1.4-1.9-1.4S17,0.6,16.8,1.5c-3.1,0.4-6,1.7-8.4,3.6C8.1,4.9,7.7,4.8,7.3,4.8
		c-1.1,0-2,0.9-2,2c0,0.4,0.1,0.8,0.4,1.1c-1.9,2.4-3.2,5.3-3.5,8.5c-0.9,0.2-1.6,1-1.6,1.9s0.7,1.7,1.5,1.9
		c0.3,3.2,1.6,6.2,3.4,8.6c-0.2,0.3-0.3,0.7-0.3,1.1c0,1.1,0.9,2,1.9,2c0.4,0,0.7-0.1,1-0.3c2,1.6,4.4,2.9,7,3.5v-1
		c-2.4-0.6-4.5-1.7-6.4-3.2c0.2-0.3,0.3-0.6,0.3-1l0,0l6.1-2.9v-1l-6.3,3c-0.3-0.6-1-1.1-1.7-1.1c-0.3,0-0.7,0.1-1,0.3
		c-1.7-2.3-2.9-5-3.2-8c0.4-0.1,0.8-0.3,1-0.6l11.2,4.7v-0.9L4.4,18.7c0-0.2,0.1-0.3,0.1-0.5c0-0.1,0-0.3,0-0.4l3.6-1.9v-1l-4,2
		c-0.3-0.3-0.6-0.6-1-0.7c0.4-3,1.6-5.7,3.3-7.9C6.6,8.6,7,8.7,7.3,8.7c0.5,0,0.9-0.2,1.2-0.4l2.3,1.9h1.4L9.1,7.5
		C9.2,7.3,9.3,7,9.3,6.7S9.2,6,9,5.7c2.2-1.8,4.9-3,7.8-3.4c0.1,0.5,0.5,1,1,1.3l-3.1,6.5h1l3-6.3c0,0,0,0,0.1,0
		c1,0,1.8-0.7,1.9-1.6c3,0.3,5.8,1.4,8.1,3.2c-0.2,0.3-0.3,0.6-0.3,1c0,0.1,0,0.2,0,0.3l-9.8,3.4h2.6l7.4-2.6
		c0.1,0.2,0.4,0.4,0.6,0.6l-0.9,2h0.9L30,8.4c0.1,0,0.2,0,0.2,0c0.4,0,0.8-0.1,1.1-0.3c1.9,2.3,3.1,5.1,3.6,8.2
		c-0.5,0.1-1,0.5-1.3,0.9l-3.8-1.4v0.9l3.6,1.3c0,0.1,0,0.1,0,0.2c0,0.9,0.7,1.7,1.6,1.9c-0.3,3.2-1.6,6.1-3.5,8.5
		c-0.3-0.2-0.7-0.3-1.1-0.3c-0.1,0-0.1,0-0.2,0l-2.3-11.4h-2.3c0.3,0.1,0.9,0.2,1.3,0.2c0.1,0,0.2,0,0.2,0l2.3,11.5
		c-0.3,0.2-0.5,0.4-0.7,0.7l-6-2.6v1l5.7,2.5l0,0c0,0.4,0.1,0.7,0.3,1c-1.8,1.4-3.8,2.3-6,2.9V35c2.5-0.5,4.7-1.7,6.6-3.2
		c0.3,0.2,0.7,0.3,1,0.3c1.1,0,2-0.9,2-2c0-0.4-0.1-0.7-0.3-1c2.1-2.5,3.5-5.7,3.8-9.1c0.8-0.2,1.5-1,1.5-1.9
		C37.4,17.3,36.8,16.5,35.9,16.3z"/>
	<polygon class="st0" points="22.1,27.3 22.1,26.4 22.1,21 22.1,19.7 22.1,16.2 25.2,16.2 28.5,16.2 28.6,16.2 29.3,16.2 29.3,15.5 
		29.3,10.9 29.2,10.9 28.2,10.9 19.4,10.9 16.7,10.9 15.3,10.9 11.7,10.9 8.7,10.9 8.7,14.6 8.7,15.6 8.7,16.2 14.6,16.2 15.6,16.2 
		15.9,16.2 15.9,17.2 15.9,20.1 15.9,23.5 15.9,24.4 15.9,25.6 15.9,26.6 15.9,35 22.1,35 	"/>
</g>
</svg>
